<mxfile host="Electron" agent="Mozilla/5.0 (X11; Linux x86_64) AppleWebKit/537.36 (KHTML, like Gecko) draw.io/27.0.5 Chrome/134.0.6998.205 Electron/35.3.0 Safari/537.36" version="27.0.5">
  <diagram name="Page-1" id="GC0qSrUznOVzJDWD5VSt">
    <mxGraphModel dx="2066" dy="1203" grid="1" gridSize="10" guides="1" tooltips="1" connect="1" arrows="1" fold="1" page="1" pageScale="1" pageWidth="3300" pageHeight="2339" math="0" shadow="0">
      <root>
        <mxCell id="0" />
        <mxCell id="1" parent="0" />
        <mxCell id="Cbigd2ETocY-Rn5_SuFj-14" value="" style="rounded=1;whiteSpace=wrap;html=1;" parent="1" vertex="1">
          <mxGeometry x="800" y="120" width="800" height="120" as="geometry" />
        </mxCell>
        <mxCell id="Cbigd2ETocY-Rn5_SuFj-1" value="USRP N210" style="rounded=1;whiteSpace=wrap;html=1;fontStyle=1;fontSize=14;fillColor=#d5e8d4;strokeColor=#82b366;" parent="1" vertex="1">
          <mxGeometry x="820" y="660" width="120" height="60" as="geometry" />
        </mxCell>
        <mxCell id="Cbigd2ETocY-Rn5_SuFj-2" value="USRP N210" style="rounded=1;whiteSpace=wrap;html=1;fontStyle=1;fontSize=14;fillColor=#dae8fc;strokeColor=#6c8ebf;" parent="1" vertex="1">
          <mxGeometry x="1470" y="660" width="120" height="60" as="geometry" />
        </mxCell>
        <mxCell id="Cbigd2ETocY-Rn5_SuFj-3" value="PA&lt;div&gt;(VHF)&lt;/div&gt;" style="rounded=1;whiteSpace=wrap;html=1;fontStyle=1;fontSize=14;fillColor=#d5e8d4;strokeColor=#82b366;" parent="1" vertex="1">
          <mxGeometry x="740" y="520" width="120" height="60" as="geometry" />
        </mxCell>
        <mxCell id="Cbigd2ETocY-Rn5_SuFj-4" value="LNA&lt;br&gt;&lt;div&gt;(VHF)&lt;/div&gt;" style="rounded=1;whiteSpace=wrap;html=1;fontStyle=1;fontSize=14;fillColor=#d5e8d4;strokeColor=#82b366;" parent="1" vertex="1">
          <mxGeometry x="900" y="520" width="120" height="60" as="geometry" />
        </mxCell>
        <mxCell id="Cbigd2ETocY-Rn5_SuFj-5" value="PA&lt;div&gt;(S-Band)&lt;/div&gt;" style="rounded=1;whiteSpace=wrap;html=1;fontStyle=1;fontSize=14;fillColor=#dae8fc;strokeColor=#6c8ebf;" parent="1" vertex="1">
          <mxGeometry x="1380" y="520" width="120" height="60" as="geometry" />
        </mxCell>
        <mxCell id="Cbigd2ETocY-Rn5_SuFj-6" value="LNA&lt;br&gt;&lt;div&gt;(S-Band)&lt;/div&gt;" style="rounded=1;whiteSpace=wrap;html=1;fontStyle=1;fontSize=14;fillColor=#dae8fc;strokeColor=#6c8ebf;" parent="1" vertex="1">
          <mxGeometry x="1540" y="520" width="120" height="60" as="geometry" />
        </mxCell>
        <mxCell id="Cbigd2ETocY-Rn5_SuFj-7" value="RF Switch" style="rounded=1;whiteSpace=wrap;html=1;fontStyle=1;fontSize=14;fillColor=#d5e8d4;strokeColor=#82b366;" parent="1" vertex="1">
          <mxGeometry x="820" y="380" width="120" height="60" as="geometry" />
        </mxCell>
        <mxCell id="Cbigd2ETocY-Rn5_SuFj-8" value="RF Switch" style="rounded=1;whiteSpace=wrap;html=1;fontStyle=1;fontSize=14;fillColor=#dae8fc;strokeColor=#6c8ebf;" parent="1" vertex="1">
          <mxGeometry x="1460" y="380" width="120" height="60" as="geometry" />
        </mxCell>
        <mxCell id="Cbigd2ETocY-Rn5_SuFj-9" value="Surge Protector" style="rounded=1;whiteSpace=wrap;html=1;fontStyle=1;fontSize=14;fillColor=#d5e8d4;strokeColor=#82b366;" parent="1" vertex="1">
          <mxGeometry x="820" y="280" width="120" height="60" as="geometry" />
        </mxCell>
        <mxCell id="Cbigd2ETocY-Rn5_SuFj-10" value="Surge Protector" style="rounded=1;whiteSpace=wrap;html=1;fontStyle=1;fontSize=14;fillColor=#dae8fc;strokeColor=#6c8ebf;" parent="1" vertex="1">
          <mxGeometry x="1460" y="280" width="120" height="60" as="geometry" />
        </mxCell>
        <mxCell id="Cbigd2ETocY-Rn5_SuFj-11" value="VHF Antenna" style="rounded=1;whiteSpace=wrap;html=1;fontSize=14;fontStyle=1;fillColor=#d5e8d4;strokeColor=#82b366;" parent="1" vertex="1">
          <mxGeometry x="820" y="160" width="120" height="60" as="geometry" />
        </mxCell>
        <mxCell id="Cbigd2ETocY-Rn5_SuFj-12" value="UHF Antenna" style="rounded=1;whiteSpace=wrap;html=1;fontStyle=1;fontSize=14;fillColor=#fff2cc;strokeColor=#d6b656;" parent="1" vertex="1">
          <mxGeometry x="1140" y="160" width="120" height="60" as="geometry" />
        </mxCell>
        <mxCell id="Cbigd2ETocY-Rn5_SuFj-13" value="S-Band Antenna" style="rounded=1;whiteSpace=wrap;html=1;fontStyle=1;fontSize=14;fillColor=#dae8fc;strokeColor=#6c8ebf;" parent="1" vertex="1">
          <mxGeometry x="1460" y="160" width="120" height="60" as="geometry" />
        </mxCell>
        <mxCell id="Cbigd2ETocY-Rn5_SuFj-15" value="Azimuth/Elevation Rotor" style="text;html=1;align=center;verticalAlign=middle;whiteSpace=wrap;rounded=0;fontSize=14;" parent="1" vertex="1">
          <mxGeometry x="1112.5" y="120" width="175" height="40" as="geometry" />
        </mxCell>
        <mxCell id="Cbigd2ETocY-Rn5_SuFj-16" value="Surveillance&lt;div&gt;Camera&lt;/div&gt;" style="rounded=1;whiteSpace=wrap;html=1;fontStyle=1;fontSize=14;fillColor=#f8cecc;strokeColor=#b85450;" parent="1" vertex="1">
          <mxGeometry x="1700" y="160" width="120" height="60" as="geometry" />
        </mxCell>
        <mxCell id="Cbigd2ETocY-Rn5_SuFj-17" value="Surge Protector" style="rounded=1;whiteSpace=wrap;html=1;fontStyle=1;fontSize=14;fillColor=#fff2cc;strokeColor=#d6b656;" parent="1" vertex="1">
          <mxGeometry x="1140" y="280" width="120" height="60" as="geometry" />
        </mxCell>
        <mxCell id="Cbigd2ETocY-Rn5_SuFj-18" value="Rotator&lt;div&gt;Controller&lt;/div&gt;" style="rounded=1;whiteSpace=wrap;html=1;fontStyle=1;fontSize=14;fillColor=#f8cecc;strokeColor=#b85450;" parent="1" vertex="1">
          <mxGeometry x="580" y="800" width="120" height="60" as="geometry" />
        </mxCell>
        <mxCell id="Cbigd2ETocY-Rn5_SuFj-19" value="Server" style="rounded=1;whiteSpace=wrap;html=1;fontStyle=1;fontSize=14;fillColor=#f8cecc;strokeColor=#b85450;" parent="1" vertex="1">
          <mxGeometry x="1140" y="900" width="120" height="80" as="geometry" />
        </mxCell>
        <mxCell id="Cbigd2ETocY-Rn5_SuFj-26" value="Network" style="rounded=1;whiteSpace=wrap;html=1;fontStyle=1;fontSize=14;fillColor=#f5f5f5;fontColor=#333333;strokeColor=#666666;" parent="1" vertex="1">
          <mxGeometry x="1140" y="1020" width="120" height="60" as="geometry" />
        </mxCell>
        <mxCell id="Cbigd2ETocY-Rn5_SuFj-27" value="Network&lt;div&gt;Switch&lt;/div&gt;" style="rounded=1;whiteSpace=wrap;html=1;fontStyle=1;fontSize=14;fillColor=#f8cecc;strokeColor=#b85450;" parent="1" vertex="1">
          <mxGeometry x="1140" y="800" width="120" height="60" as="geometry" />
        </mxCell>
        <mxCell id="Cbigd2ETocY-Rn5_SuFj-28" value="No-Break" style="rounded=1;whiteSpace=wrap;html=1;fontStyle=1;fontSize=14;fillColor=#f8cecc;strokeColor=#b85450;" parent="1" vertex="1">
          <mxGeometry x="1470" y="910" width="120" height="60" as="geometry" />
        </mxCell>
        <mxCell id="Cbigd2ETocY-Rn5_SuFj-29" value="Power Supplies" style="rounded=1;whiteSpace=wrap;html=1;fontStyle=1;fontSize=14;fillColor=#f8cecc;strokeColor=#b85450;" parent="1" vertex="1">
          <mxGeometry x="1470" y="800" width="120" height="60" as="geometry" />
        </mxCell>
        <mxCell id="Cbigd2ETocY-Rn5_SuFj-30" value="" style="endArrow=classic;startArrow=classic;html=1;rounded=0;exitX=0.5;exitY=0;exitDx=0;exitDy=0;entryX=0.5;entryY=1;entryDx=0;entryDy=0;fillColor=#008a00;strokeColor=#005700;" parent="1" source="Cbigd2ETocY-Rn5_SuFj-9" target="Cbigd2ETocY-Rn5_SuFj-11" edge="1">
          <mxGeometry width="50" height="50" relative="1" as="geometry">
            <mxPoint x="750" y="280" as="sourcePoint" />
            <mxPoint x="800" y="230" as="targetPoint" />
          </mxGeometry>
        </mxCell>
        <mxCell id="Cbigd2ETocY-Rn5_SuFj-31" value="" style="endArrow=classic;startArrow=classic;html=1;rounded=0;exitX=0.5;exitY=0;exitDx=0;exitDy=0;fillColor=#008a00;strokeColor=#005700;" parent="1" source="Cbigd2ETocY-Rn5_SuFj-17" target="Cbigd2ETocY-Rn5_SuFj-12" edge="1">
          <mxGeometry width="50" height="50" relative="1" as="geometry">
            <mxPoint x="810" y="270" as="sourcePoint" />
            <mxPoint x="860" y="220" as="targetPoint" />
          </mxGeometry>
        </mxCell>
        <mxCell id="Cbigd2ETocY-Rn5_SuFj-32" value="" style="endArrow=classic;startArrow=classic;html=1;rounded=0;exitX=0.5;exitY=0;exitDx=0;exitDy=0;entryX=0.5;entryY=1;entryDx=0;entryDy=0;fillColor=#008a00;strokeColor=#005700;" parent="1" source="Cbigd2ETocY-Rn5_SuFj-10" target="Cbigd2ETocY-Rn5_SuFj-13" edge="1">
          <mxGeometry width="50" height="50" relative="1" as="geometry">
            <mxPoint x="880" y="320" as="sourcePoint" />
            <mxPoint x="930" y="270" as="targetPoint" />
          </mxGeometry>
        </mxCell>
        <mxCell id="Cbigd2ETocY-Rn5_SuFj-33" value="" style="endArrow=classic;html=1;rounded=0;exitX=0.5;exitY=0;exitDx=0;exitDy=0;entryX=0.25;entryY=1;entryDx=0;entryDy=0;fillColor=#008a00;strokeColor=#005700;" parent="1" source="Cbigd2ETocY-Rn5_SuFj-5" target="Cbigd2ETocY-Rn5_SuFj-8" edge="1">
          <mxGeometry width="50" height="50" relative="1" as="geometry">
            <mxPoint x="1370" y="460" as="sourcePoint" />
            <mxPoint x="1420" y="410" as="targetPoint" />
            <Array as="points">
              <mxPoint x="1440" y="480" />
              <mxPoint x="1490" y="480" />
            </Array>
          </mxGeometry>
        </mxCell>
        <mxCell id="Cbigd2ETocY-Rn5_SuFj-34" value="" style="endArrow=classic;html=1;rounded=0;exitX=0.75;exitY=1;exitDx=0;exitDy=0;entryX=0.5;entryY=0;entryDx=0;entryDy=0;fillColor=#008a00;strokeColor=#005700;" parent="1" source="Cbigd2ETocY-Rn5_SuFj-8" target="Cbigd2ETocY-Rn5_SuFj-6" edge="1">
          <mxGeometry width="50" height="50" relative="1" as="geometry">
            <mxPoint x="1670" y="410" as="sourcePoint" />
            <mxPoint x="1720" y="360" as="targetPoint" />
            <Array as="points">
              <mxPoint x="1550" y="480" />
              <mxPoint x="1600" y="480" />
            </Array>
          </mxGeometry>
        </mxCell>
        <mxCell id="Cbigd2ETocY-Rn5_SuFj-35" value="" style="endArrow=classic;html=1;rounded=0;entryX=0.75;entryY=0;entryDx=0;entryDy=0;exitX=0.5;exitY=1;exitDx=0;exitDy=0;fillColor=#008a00;strokeColor=#005700;" parent="1" source="Cbigd2ETocY-Rn5_SuFj-6" target="Cbigd2ETocY-Rn5_SuFj-2" edge="1">
          <mxGeometry width="50" height="50" relative="1" as="geometry">
            <mxPoint x="1180" y="620" as="sourcePoint" />
            <mxPoint x="1230" y="570" as="targetPoint" />
            <Array as="points">
              <mxPoint x="1600" y="620" />
              <mxPoint x="1560" y="620" />
            </Array>
          </mxGeometry>
        </mxCell>
        <mxCell id="Cbigd2ETocY-Rn5_SuFj-36" value="" style="endArrow=classic;html=1;rounded=0;exitX=0.25;exitY=0;exitDx=0;exitDy=0;entryX=0.5;entryY=1;entryDx=0;entryDy=0;fillColor=#008a00;strokeColor=#005700;" parent="1" source="Cbigd2ETocY-Rn5_SuFj-2" target="Cbigd2ETocY-Rn5_SuFj-5" edge="1">
          <mxGeometry width="50" height="50" relative="1" as="geometry">
            <mxPoint x="1300" y="630" as="sourcePoint" />
            <mxPoint x="1350" y="580" as="targetPoint" />
            <Array as="points">
              <mxPoint x="1500" y="620" />
              <mxPoint x="1440" y="620" />
              <mxPoint x="1440" y="600" />
            </Array>
          </mxGeometry>
        </mxCell>
        <mxCell id="Cbigd2ETocY-Rn5_SuFj-38" value="" style="endArrow=classic;startArrow=classic;html=1;rounded=0;exitX=0.5;exitY=0;exitDx=0;exitDy=0;entryX=0.5;entryY=1;entryDx=0;entryDy=0;fillColor=#008a00;strokeColor=#005700;" parent="1" source="Cbigd2ETocY-Rn5_SuFj-8" target="Cbigd2ETocY-Rn5_SuFj-10" edge="1">
          <mxGeometry width="50" height="50" relative="1" as="geometry">
            <mxPoint x="1470" y="360" as="sourcePoint" />
            <mxPoint x="1520" y="310" as="targetPoint" />
          </mxGeometry>
        </mxCell>
        <mxCell id="Cbigd2ETocY-Rn5_SuFj-39" value="TX" style="text;html=1;align=center;verticalAlign=middle;whiteSpace=wrap;rounded=0;fontSize=8;" parent="1" vertex="1">
          <mxGeometry x="1470" y="660" width="60" height="20" as="geometry" />
        </mxCell>
        <mxCell id="Cbigd2ETocY-Rn5_SuFj-40" value="RX" style="text;html=1;align=center;verticalAlign=middle;whiteSpace=wrap;rounded=0;fontSize=8;" parent="1" vertex="1">
          <mxGeometry x="1530" y="660" width="60" height="20" as="geometry" />
        </mxCell>
        <mxCell id="Cbigd2ETocY-Rn5_SuFj-41" value="TX" style="text;html=1;align=center;verticalAlign=middle;whiteSpace=wrap;rounded=0;fontSize=8;" parent="1" vertex="1">
          <mxGeometry x="820" y="660" width="60" height="20" as="geometry" />
        </mxCell>
        <mxCell id="Cbigd2ETocY-Rn5_SuFj-42" value="RX" style="text;html=1;align=center;verticalAlign=middle;whiteSpace=wrap;rounded=0;fontSize=8;" parent="1" vertex="1">
          <mxGeometry x="880" y="660" width="60" height="20" as="geometry" />
        </mxCell>
        <mxCell id="Cbigd2ETocY-Rn5_SuFj-43" value="USRP N210" style="rounded=1;whiteSpace=wrap;html=1;fontStyle=1;fontSize=14;fillColor=#fff2cc;strokeColor=#d6b656;" parent="1" vertex="1">
          <mxGeometry x="1140" y="660" width="120" height="60" as="geometry" />
        </mxCell>
        <mxCell id="Cbigd2ETocY-Rn5_SuFj-44" value="TX" style="text;html=1;align=center;verticalAlign=middle;whiteSpace=wrap;rounded=0;fontSize=8;" parent="1" vertex="1">
          <mxGeometry x="1140" y="660" width="60" height="20" as="geometry" />
        </mxCell>
        <mxCell id="Cbigd2ETocY-Rn5_SuFj-45" value="RX" style="text;html=1;align=center;verticalAlign=middle;whiteSpace=wrap;rounded=0;fontSize=8;" parent="1" vertex="1">
          <mxGeometry x="1200" y="660" width="60" height="20" as="geometry" />
        </mxCell>
        <mxCell id="Cbigd2ETocY-Rn5_SuFj-46" value="" style="endArrow=classic;html=1;rounded=0;exitX=0.5;exitY=0;exitDx=0;exitDy=0;entryX=0.5;entryY=1;entryDx=0;entryDy=0;fillColor=#008a00;strokeColor=#005700;" parent="1" source="Cbigd2ETocY-Rn5_SuFj-41" target="Cbigd2ETocY-Rn5_SuFj-3" edge="1">
          <mxGeometry width="50" height="50" relative="1" as="geometry">
            <mxPoint x="700" y="650" as="sourcePoint" />
            <mxPoint x="750" y="600" as="targetPoint" />
            <Array as="points">
              <mxPoint x="850" y="620" />
              <mxPoint x="800" y="620" />
            </Array>
          </mxGeometry>
        </mxCell>
        <mxCell id="Cbigd2ETocY-Rn5_SuFj-47" value="" style="endArrow=classic;html=1;rounded=0;exitX=0.5;exitY=1;exitDx=0;exitDy=0;entryX=0.5;entryY=0;entryDx=0;entryDy=0;fillColor=#008a00;strokeColor=#005700;" parent="1" source="Cbigd2ETocY-Rn5_SuFj-4" target="Cbigd2ETocY-Rn5_SuFj-42" edge="1">
          <mxGeometry width="50" height="50" relative="1" as="geometry">
            <mxPoint x="1050" y="610" as="sourcePoint" />
            <mxPoint x="1100" y="560" as="targetPoint" />
            <Array as="points">
              <mxPoint x="960" y="620" />
              <mxPoint x="910" y="620" />
            </Array>
          </mxGeometry>
        </mxCell>
        <mxCell id="Cbigd2ETocY-Rn5_SuFj-48" value="" style="endArrow=classic;html=1;rounded=0;exitX=0.5;exitY=0;exitDx=0;exitDy=0;entryX=0.25;entryY=1;entryDx=0;entryDy=0;fillColor=#008a00;strokeColor=#005700;" parent="1" source="Cbigd2ETocY-Rn5_SuFj-3" target="Cbigd2ETocY-Rn5_SuFj-7" edge="1">
          <mxGeometry width="50" height="50" relative="1" as="geometry">
            <mxPoint x="610" y="410" as="sourcePoint" />
            <mxPoint x="660" y="360" as="targetPoint" />
            <Array as="points">
              <mxPoint x="800" y="480" />
              <mxPoint x="850" y="480" />
            </Array>
          </mxGeometry>
        </mxCell>
        <mxCell id="Cbigd2ETocY-Rn5_SuFj-49" value="" style="endArrow=classic;html=1;rounded=0;exitX=0.75;exitY=1;exitDx=0;exitDy=0;entryX=0.5;entryY=0;entryDx=0;entryDy=0;fillColor=#008a00;strokeColor=#005700;" parent="1" source="Cbigd2ETocY-Rn5_SuFj-7" target="Cbigd2ETocY-Rn5_SuFj-4" edge="1">
          <mxGeometry width="50" height="50" relative="1" as="geometry">
            <mxPoint x="1060" y="490" as="sourcePoint" />
            <mxPoint x="1110" y="440" as="targetPoint" />
            <Array as="points">
              <mxPoint x="910" y="480" />
              <mxPoint x="960" y="480" />
            </Array>
          </mxGeometry>
        </mxCell>
        <mxCell id="Cbigd2ETocY-Rn5_SuFj-50" value="LNA&lt;br&gt;&lt;div&gt;(UHF)&lt;/div&gt;" style="rounded=1;whiteSpace=wrap;html=1;fontStyle=1;fontSize=14;fillColor=#fff2cc;strokeColor=#d6b656;" parent="1" vertex="1">
          <mxGeometry x="1220" y="520" width="120" height="60" as="geometry" />
        </mxCell>
        <mxCell id="Cbigd2ETocY-Rn5_SuFj-52" value="PA&lt;div&gt;(UHF)&lt;/div&gt;" style="rounded=1;whiteSpace=wrap;html=1;fontStyle=1;fontSize=14;fillColor=#fff2cc;strokeColor=#d6b656;" parent="1" vertex="1">
          <mxGeometry x="1060" y="520" width="120" height="60" as="geometry" />
        </mxCell>
        <mxCell id="Cbigd2ETocY-Rn5_SuFj-53" value="" style="endArrow=classic;html=1;rounded=0;exitX=0.5;exitY=0;exitDx=0;exitDy=0;entryX=0.5;entryY=1;entryDx=0;entryDy=0;fillColor=#008a00;strokeColor=#005700;" parent="1" source="Cbigd2ETocY-Rn5_SuFj-44" target="Cbigd2ETocY-Rn5_SuFj-52" edge="1">
          <mxGeometry width="50" height="50" relative="1" as="geometry">
            <mxPoint x="925" y="640" as="sourcePoint" />
            <mxPoint x="975" y="590" as="targetPoint" />
            <Array as="points">
              <mxPoint x="1170" y="620" />
              <mxPoint x="1120" y="620" />
            </Array>
          </mxGeometry>
        </mxCell>
        <mxCell id="Cbigd2ETocY-Rn5_SuFj-54" value="" style="endArrow=classic;html=1;rounded=0;exitX=0.5;exitY=1;exitDx=0;exitDy=0;entryX=0.5;entryY=0;entryDx=0;entryDy=0;fillColor=#008a00;strokeColor=#005700;" parent="1" source="Cbigd2ETocY-Rn5_SuFj-50" target="Cbigd2ETocY-Rn5_SuFj-45" edge="1">
          <mxGeometry width="50" height="50" relative="1" as="geometry">
            <mxPoint x="1275" y="580" as="sourcePoint" />
            <mxPoint x="1365" y="610" as="targetPoint" />
            <Array as="points">
              <mxPoint x="1280" y="620" />
              <mxPoint x="1230" y="620" />
            </Array>
          </mxGeometry>
        </mxCell>
        <mxCell id="Cbigd2ETocY-Rn5_SuFj-55" value="RF Switch" style="rounded=1;whiteSpace=wrap;html=1;fontStyle=1;fontSize=14;fillColor=#fff2cc;strokeColor=#d6b656;" parent="1" vertex="1">
          <mxGeometry x="1140" y="380" width="120" height="60" as="geometry" />
        </mxCell>
        <mxCell id="Cbigd2ETocY-Rn5_SuFj-56" value="" style="endArrow=classic;html=1;rounded=0;exitX=0.5;exitY=0;exitDx=0;exitDy=0;entryX=0.25;entryY=1;entryDx=0;entryDy=0;fillColor=#008a00;strokeColor=#005700;" parent="1" source="Cbigd2ETocY-Rn5_SuFj-52" target="Cbigd2ETocY-Rn5_SuFj-55" edge="1">
          <mxGeometry width="50" height="50" relative="1" as="geometry">
            <mxPoint x="1020" y="460" as="sourcePoint" />
            <mxPoint x="1070" y="410" as="targetPoint" />
            <Array as="points">
              <mxPoint x="1120" y="480" />
              <mxPoint x="1170" y="480" />
            </Array>
          </mxGeometry>
        </mxCell>
        <mxCell id="Cbigd2ETocY-Rn5_SuFj-57" value="" style="endArrow=classic;html=1;rounded=0;exitX=0.75;exitY=1;exitDx=0;exitDy=0;entryX=0.5;entryY=0;entryDx=0;entryDy=0;fillColor=#008a00;strokeColor=#005700;" parent="1" source="Cbigd2ETocY-Rn5_SuFj-55" target="Cbigd2ETocY-Rn5_SuFj-50" edge="1">
          <mxGeometry width="50" height="50" relative="1" as="geometry">
            <mxPoint x="1300" y="480" as="sourcePoint" />
            <mxPoint x="1350" y="430" as="targetPoint" />
            <Array as="points">
              <mxPoint x="1230" y="480" />
              <mxPoint x="1280" y="480" />
            </Array>
          </mxGeometry>
        </mxCell>
        <mxCell id="Cbigd2ETocY-Rn5_SuFj-60" value="" style="endArrow=classic;startArrow=classic;html=1;rounded=0;exitX=0.5;exitY=0;exitDx=0;exitDy=0;entryX=0.5;entryY=1;entryDx=0;entryDy=0;fillColor=#008a00;strokeColor=#005700;flowAnimation=0;" parent="1" source="Cbigd2ETocY-Rn5_SuFj-7" target="Cbigd2ETocY-Rn5_SuFj-9" edge="1">
          <mxGeometry width="50" height="50" relative="1" as="geometry">
            <mxPoint x="650" y="360" as="sourcePoint" />
            <mxPoint x="700" y="310" as="targetPoint" />
          </mxGeometry>
        </mxCell>
        <mxCell id="Cbigd2ETocY-Rn5_SuFj-61" value="" style="endArrow=classic;startArrow=classic;html=1;rounded=0;exitX=0.5;exitY=0;exitDx=0;exitDy=0;entryX=0.5;entryY=1;entryDx=0;entryDy=0;fillColor=#008a00;strokeColor=#005700;flowAnimation=0;" parent="1" source="Cbigd2ETocY-Rn5_SuFj-55" target="Cbigd2ETocY-Rn5_SuFj-17" edge="1">
          <mxGeometry width="50" height="50" relative="1" as="geometry">
            <mxPoint x="1040" y="330" as="sourcePoint" />
            <mxPoint x="1090" y="280" as="targetPoint" />
          </mxGeometry>
        </mxCell>
        <mxCell id="Cbigd2ETocY-Rn5_SuFj-63" value="" style="endArrow=classic;startArrow=classic;html=1;rounded=0;entryX=0.25;entryY=0;entryDx=0;entryDy=0;exitX=0.5;exitY=1;exitDx=0;exitDy=0;fillColor=#0050ef;strokeColor=#001DBC;" parent="1" source="Cbigd2ETocY-Rn5_SuFj-1" target="Cbigd2ETocY-Rn5_SuFj-27" edge="1">
          <mxGeometry width="50" height="50" relative="1" as="geometry">
            <mxPoint x="860" y="810" as="sourcePoint" />
            <mxPoint x="910" y="760" as="targetPoint" />
            <Array as="points">
              <mxPoint x="880" y="760" />
              <mxPoint x="1170" y="760" />
            </Array>
          </mxGeometry>
        </mxCell>
        <mxCell id="Cbigd2ETocY-Rn5_SuFj-64" value="" style="endArrow=classic;startArrow=classic;html=1;rounded=0;exitX=0.75;exitY=0;exitDx=0;exitDy=0;entryX=0.5;entryY=1;entryDx=0;entryDy=0;fillColor=#0050ef;strokeColor=#001DBC;" parent="1" source="Cbigd2ETocY-Rn5_SuFj-27" target="Cbigd2ETocY-Rn5_SuFj-2" edge="1">
          <mxGeometry width="50" height="50" relative="1" as="geometry">
            <mxPoint x="1460" y="890" as="sourcePoint" />
            <mxPoint x="1510" y="840" as="targetPoint" />
            <Array as="points">
              <mxPoint x="1230" y="760" />
              <mxPoint x="1530" y="760" />
            </Array>
          </mxGeometry>
        </mxCell>
        <mxCell id="Cbigd2ETocY-Rn5_SuFj-65" value="" style="endArrow=classic;startArrow=classic;html=1;rounded=0;exitX=0.5;exitY=0;exitDx=0;exitDy=0;entryX=0.5;entryY=1;entryDx=0;entryDy=0;fillColor=#0050ef;strokeColor=#001DBC;" parent="1" source="Cbigd2ETocY-Rn5_SuFj-27" target="Cbigd2ETocY-Rn5_SuFj-43" edge="1">
          <mxGeometry width="50" height="50" relative="1" as="geometry">
            <mxPoint x="1060" y="860" as="sourcePoint" />
            <mxPoint x="1110" y="810" as="targetPoint" />
          </mxGeometry>
        </mxCell>
        <mxCell id="Cbigd2ETocY-Rn5_SuFj-66" value="" style="endArrow=classic;startArrow=classic;html=1;rounded=0;exitX=0.5;exitY=0;exitDx=0;exitDy=0;entryX=0.5;entryY=1;entryDx=0;entryDy=0;fillColor=#0050ef;strokeColor=#001DBC;" parent="1" source="Cbigd2ETocY-Rn5_SuFj-19" target="Cbigd2ETocY-Rn5_SuFj-27" edge="1">
          <mxGeometry width="50" height="50" relative="1" as="geometry">
            <mxPoint x="980" y="900" as="sourcePoint" />
            <mxPoint x="1030" y="850" as="targetPoint" />
          </mxGeometry>
        </mxCell>
        <mxCell id="Cbigd2ETocY-Rn5_SuFj-67" value="" style="endArrow=classic;startArrow=classic;html=1;rounded=0;entryX=0;entryY=0.5;entryDx=0;entryDy=0;exitX=0.5;exitY=0;exitDx=0;exitDy=0;fillColor=#e51400;strokeColor=#B20000;" parent="1" source="Cbigd2ETocY-Rn5_SuFj-18" target="Cbigd2ETocY-Rn5_SuFj-14" edge="1">
          <mxGeometry width="50" height="50" relative="1" as="geometry">
            <mxPoint x="440" y="200" as="sourcePoint" />
            <mxPoint x="490" y="150" as="targetPoint" />
            <Array as="points">
              <mxPoint x="640" y="180" />
            </Array>
          </mxGeometry>
        </mxCell>
        <mxCell id="Cbigd2ETocY-Rn5_SuFj-68" value="" style="endArrow=classic;startArrow=classic;html=1;rounded=0;entryX=0;entryY=0.75;entryDx=0;entryDy=0;exitX=0.5;exitY=1;exitDx=0;exitDy=0;fillColor=#e51400;strokeColor=#B20000;" parent="1" source="Cbigd2ETocY-Rn5_SuFj-18" target="Cbigd2ETocY-Rn5_SuFj-19" edge="1">
          <mxGeometry width="50" height="50" relative="1" as="geometry">
            <mxPoint x="840" y="930" as="sourcePoint" />
            <mxPoint x="890" y="880" as="targetPoint" />
            <Array as="points">
              <mxPoint x="640" y="960" />
            </Array>
          </mxGeometry>
        </mxCell>
        <mxCell id="Cbigd2ETocY-Rn5_SuFj-69" value="" style="endArrow=classic;html=1;rounded=0;entryX=0;entryY=0.5;entryDx=0;entryDy=0;exitX=0;exitY=0.5;exitDx=0;exitDy=0;fillColor=#e51400;strokeColor=#B20000;" parent="1" source="Cbigd2ETocY-Rn5_SuFj-19" target="Cbigd2ETocY-Rn5_SuFj-7" edge="1">
          <mxGeometry width="50" height="50" relative="1" as="geometry">
            <mxPoint x="690" y="440" as="sourcePoint" />
            <mxPoint x="740" y="390" as="targetPoint" />
            <Array as="points">
              <mxPoint x="720" y="940" />
              <mxPoint x="720" y="410" />
            </Array>
          </mxGeometry>
        </mxCell>
        <mxCell id="Cbigd2ETocY-Rn5_SuFj-70" value="" style="endArrow=classic;html=1;rounded=0;entryX=0;entryY=0.5;entryDx=0;entryDy=0;exitX=0;exitY=0.25;exitDx=0;exitDy=0;fillColor=#e51400;strokeColor=#B20000;" parent="1" source="Cbigd2ETocY-Rn5_SuFj-19" target="Cbigd2ETocY-Rn5_SuFj-55" edge="1">
          <mxGeometry width="50" height="50" relative="1" as="geometry">
            <mxPoint x="1020" y="450" as="sourcePoint" />
            <mxPoint x="1070" y="400" as="targetPoint" />
            <Array as="points">
              <mxPoint x="1040" y="920" />
              <mxPoint x="1040" y="410" />
            </Array>
          </mxGeometry>
        </mxCell>
        <mxCell id="Cbigd2ETocY-Rn5_SuFj-71" value="" style="endArrow=classic;html=1;rounded=0;entryX=0;entryY=0.5;entryDx=0;entryDy=0;exitX=1;exitY=0.25;exitDx=0;exitDy=0;fillColor=#e51400;strokeColor=#B20000;" parent="1" source="Cbigd2ETocY-Rn5_SuFj-19" target="Cbigd2ETocY-Rn5_SuFj-8" edge="1">
          <mxGeometry width="50" height="50" relative="1" as="geometry">
            <mxPoint x="1300" y="930" as="sourcePoint" />
            <mxPoint x="1350" y="880" as="targetPoint" />
            <Array as="points">
              <mxPoint x="1360" y="920" />
              <mxPoint x="1360" y="410" />
            </Array>
          </mxGeometry>
        </mxCell>
        <mxCell id="Cbigd2ETocY-Rn5_SuFj-72" value="" style="endArrow=classic;startArrow=classic;html=1;rounded=0;exitX=0.5;exitY=0;exitDx=0;exitDy=0;entryX=0.5;entryY=1;entryDx=0;entryDy=0;fillColor=#0050ef;strokeColor=#001DBC;" parent="1" source="Cbigd2ETocY-Rn5_SuFj-26" target="Cbigd2ETocY-Rn5_SuFj-19" edge="1">
          <mxGeometry width="50" height="50" relative="1" as="geometry">
            <mxPoint x="1300" y="1010" as="sourcePoint" />
            <mxPoint x="1350" y="960" as="targetPoint" />
          </mxGeometry>
        </mxCell>
        <mxCell id="Cbigd2ETocY-Rn5_SuFj-73" value="" style="endArrow=classic;html=1;rounded=0;exitX=0;exitY=0.5;exitDx=0;exitDy=0;entryX=1;entryY=0.5;entryDx=0;entryDy=0;fillColor=#e3c800;strokeColor=#B09500;" parent="1" source="Cbigd2ETocY-Rn5_SuFj-28" target="Cbigd2ETocY-Rn5_SuFj-19" edge="1">
          <mxGeometry width="50" height="50" relative="1" as="geometry">
            <mxPoint x="1360" y="960" as="sourcePoint" />
            <mxPoint x="1410" y="910" as="targetPoint" />
          </mxGeometry>
        </mxCell>
        <mxCell id="Cbigd2ETocY-Rn5_SuFj-74" value="" style="endArrow=classic;html=1;rounded=0;exitX=0.5;exitY=0;exitDx=0;exitDy=0;entryX=0.5;entryY=1;entryDx=0;entryDy=0;fillColor=#e3c800;strokeColor=#B09500;" parent="1" source="Cbigd2ETocY-Rn5_SuFj-28" target="Cbigd2ETocY-Rn5_SuFj-29" edge="1">
          <mxGeometry width="50" height="50" relative="1" as="geometry">
            <mxPoint x="1670" y="820" as="sourcePoint" />
            <mxPoint x="1720" y="770" as="targetPoint" />
          </mxGeometry>
        </mxCell>
        <mxCell id="Cbigd2ETocY-Rn5_SuFj-76" value="" style="endArrow=classic;html=1;rounded=0;exitX=0.5;exitY=1;exitDx=0;exitDy=0;entryX=1;entryY=0.75;entryDx=0;entryDy=0;fillColor=#e51400;strokeColor=#B20000;" parent="1" source="Cbigd2ETocY-Rn5_SuFj-16" target="Cbigd2ETocY-Rn5_SuFj-19" edge="1">
          <mxGeometry width="50" height="50" relative="1" as="geometry">
            <mxPoint x="1870" y="360" as="sourcePoint" />
            <mxPoint x="1920" y="310" as="targetPoint" />
            <Array as="points">
              <mxPoint x="1760" y="780" />
              <mxPoint x="1400" y="780" />
              <mxPoint x="1400" y="960" />
            </Array>
          </mxGeometry>
        </mxCell>
      </root>
    </mxGraphModel>
  </diagram>
</mxfile>
